<svg preserveAspectRatio="none" width="100%" height="100%" overflow="visible" style="display: block;" viewBox="0 0 7.03031 9.65784" fill="none" xmlns="http://www.w3.org/2000/svg">
<path id="Vector" d="M3.42863 9.65784C1.66622 9.65784 0.583219 8.89519 0.147375 7.98516C0.0448124 7.77375 0 7.56863 0 7.37634C0 6.87647 0.320438 6.5625 0.852376 6.5625C1.23684 6.5625 1.48041 6.71625 1.67269 7.06875C1.9995 7.716 2.49937 8.10056 3.46069 8.10056C4.40916 8.10056 5.06288 7.54941 5.06288 6.78037C5.06925 5.88319 4.40916 5.38331 3.28763 5.38331H2.88394C2.41603 5.38331 2.14687 5.10769 2.14687 4.69116C2.14687 4.28737 2.41603 4.00537 2.88394 4.00537H3.26203C4.22972 4.00537 4.85775 3.47991 4.85775 2.72363C4.85775 1.98028 4.35788 1.48678 3.42225 1.48678C2.64038 1.48678 2.16609 1.81359 1.86497 2.46731C1.65347 2.90306 1.42912 3.06328 0.993375 3.06328C0.454969 3.06328 0.179438 2.74931 0.179438 2.2815C0.179438 2.06353 0.224344 1.87772 0.320438 1.65984C0.730594 0.756188 1.78162 0 3.41587 0C5.37047 0 6.69066 0.967687 6.69066 2.44809C6.69066 3.62091 5.85113 4.38994 4.76166 4.61419V4.65272C6.1395 4.78088 7.03031 5.58834 7.03031 6.86372C7.03031 8.54278 5.57559 9.65784 3.42863 9.65784Z" fill="#00132B" fill-opacity="0.58"/>
</svg>
