<svg preserveAspectRatio="none" width="100%" height="100%" overflow="visible" style="display: block;" viewBox="0 0 6.83166 9.45281" fill="none" xmlns="http://www.w3.org/2000/svg">
<path id="Vector" d="M0.910031 9.45281C0.301218 9.45281 0 9.11316 0 8.62603C0 8.26078 0.141 8.01722 0.531937 7.65834L3.28762 5.02434C4.42837 3.9285 4.72322 3.47991 4.72322 2.81334C4.72322 2.05078 4.13362 1.506 3.30684 1.506C2.5635 1.506 2.05078 1.87772 1.7175 2.62116C1.49962 3.00562 1.27537 3.18506 0.858749 3.18506C0.339656 3.18506 0.0320622 2.87747 0.0320622 2.39681C0.0320622 2.24944 0.0576561 2.11481 0.102562 1.98028C0.416531 0.954844 1.5765 0 3.32606 0C5.28713 0 6.60731 1.10231 6.60731 2.69166C6.60731 3.81956 6.05625 4.52447 4.54378 5.95369L2.54428 7.87622V7.91475H6.03056C6.53044 7.91475 6.83166 8.21588 6.83166 8.68378C6.83166 9.13875 6.53044 9.45281 6.03056 9.45281H0.910031Z" fill="#00132B" fill-opacity="0.58"/>
</svg>
